# Alias OBJ Model File
# Exported from SketchUp, (c) 2000-2012 Trimble Navigation Limited
# File units = meters

mtllib input.mtl

g Mesh1 Model

usemtl Wood_Floor_Light
v 1.39962 -6.12205 -0
vt 0.458893 -5.01807
vn 0 0 1
v -1.84891 -6.00166 -0
vt -0.606201 -4.91939
v -0.23257 -6.27569 -0
vt -0.0762524 -5.14401
f 1/1/1 2/2/1 3/3/1

v 2.93643 -5.55119 -0
vt 0.962765 -4.55016
f 2/2/1 1/1/1 4/4/1

v -3.33926 -5.31862 -0
vt -1.09484 -4.35953
f 2/2/1 4/4/1 5/5/1

v 4.27313 -4.60204 -0
vt 1.40103 -3.77216
f 5/5/1 4/4/1 6/6/1

v -4.60204 -4.27313 -0
vt -1.50886 -3.50257
f 5/5/1 6/6/1 7/7/1

v 5.31862 -3.33926 -0
vt 1.74381 -2.7371
f 7/7/1 6/6/1 8/8/1

v -5.55119 -2.93643 -0
vt -1.82006 -2.40691
f 7/7/1 8/8/1 9/9/1

v 6.00166 -1.84891 -0
vt 1.96776 -1.5155
f 9/9/1 8/8/1 10/10/1

v -6.12205 -1.39962 -0
vt -2.00723 -1.14723
f 9/9/1 10/10/1 11/11/1

v 6.27569 -0.23257 -0
vt 2.0576 -0.190631
f 11/11/1 10/10/1 12/12/1

v -6.27569 0.23257 -0
vt -2.0576 0.190631
f 11/11/1 12/12/1 13/13/1

v 6.12205 1.39962 -0
vt 2.00723 1.14723
f 13/13/1 12/12/1 14/14/1

v -6.00166 1.84891 -0
vt -1.96776 1.5155
f 13/13/1 14/14/1 15/15/1

v 5.55119 2.93643 -0
vt 1.82006 2.40691
f 15/15/1 14/14/1 16/16/1

v -5.31862 3.33926 -0
vt -1.74381 2.7371
f 15/15/1 16/16/1 17/17/1

v 4.60204 4.27313 -0
vt 1.50886 3.50257
f 17/17/1 16/16/1 18/18/1

v -4.27313 4.60204 -0
vt -1.40103 3.77216
f 17/17/1 18/18/1 19/19/1

v 3.33926 5.31862 -0
vt 1.09484 4.35953
f 19/19/1 18/18/1 20/20/1

v -2.93643 5.55119 -0
vt -0.962765 4.55016
f 19/19/1 20/20/1 21/21/1

v 1.84891 6.00166 -0
vt 0.606201 4.91939
f 21/21/1 20/20/1 22/22/1

v -1.39962 6.12205 -0
vt -0.458893 5.01807
f 21/21/1 22/22/1 23/23/1

v 0.23257 6.27569 -0
vt 0.0762524 5.14401
f 23/23/1 22/22/1 24/24/1

g Mesh2 Model

usemtl Brick_Tumbled
v 6.01237 -19.9121 -0
vt 0.6607 -4.37628
v 5.59 -12.0572 -0
vt 0.614285 -2.64993
v -14.2382 -15.1629 -0
vt -1.56464 -3.33251
f 25/25/1 26/26/1 27/27/1

v 20.2506 -4.74918 -0
vt 2.22534 -1.04378
f 26/26/1 25/25/1 28/28/1

v 13.2368 -1.18752 -0
vt 1.4546 -0.260993
f 26/26/1 28/28/1 29/29/1

v 14.2382 15.1629 -0
vt 1.56464 3.33251
f 29/29/1 28/28/1 30/30/1

v 7.64684 10.8697 -0
vt 0.840312 2.38894
f 29/29/1 30/30/1 31/31/1

v -5.59 12.0572 -0
vt -0.614285 2.64993
f 31/31/1 30/30/1 32/32/1

v -6.01237 19.9121 -0
vt -0.6607 4.37628
f 33/33/1 32/32/1 30/30/1

v -20.2506 4.74918 -0
vt -2.22534 1.04378
f 34/34/1 32/32/1 33/33/1

v -13.2368 1.18752 -0
vt -1.4546 0.260993
f 34/34/1 35/35/1 32/32/1

v -7.64684 -10.8697 -0
vt -0.840312 -2.38894
f 34/34/1 36/36/1 35/35/1

f 27/27/1 36/36/1 34/34/1

f 36/36/1 27/27/1 26/26/1

